<svg xmlns="http://www.w3.org/2000/svg" viewBox="0 0 100 100">
	<path d="M38.083 30.53l3.207 17.025-3.484 1.298-3.208-17.026-2.062.767 2.797-6.764 4.813 3.932z" />
	<path d="M37.806 49.328a.34.479 0 01-.327-.354l-3.122-16.566-1.735.646a.337.474 0 01-.378-.7l2.797-6.766a.338.476 0 01.462-.172l4.813 3.931a.338.476 0 01-.083.873l-1.736.646 3.122 16.564a.337.474 0 01-.24.58l-3.485 1.299a.272.383 0 01-.088.02zm-3.208-17.977c.15 0 .288.14.328.352l3.12 16.565 2.83-1.052-3.12-16.566a.34.477 0 01.24-.581l1.272-.474-3.814-3.116-2.216 5.362 1.272-.474a.4.563 0 01.088-.016zm18.214-7.29v24.207h-4.956V24.061h-2.933l5.41-7.606 5.412 7.606z" />
	<path d="M52.812 48.747h-4.956a.337.474 0 01-.338-.479v-23.73h-2.595a.338.476 0 01-.24-.81l5.41-7.607a.347.488 0 01.48 0l5.39 7.577c.074.087.12.22.12.366a.336.473 0 01-.338.475h-2.596v23.732a.338.476 0 01-.337.477zm-4.617-.953h4.278V24.061c0-.262.15-.475.34-.475h2.115l-4.595-6.457-4.592 6.457h2.115c.186 0 .339.211.339.475z" />
	<path d="M82.31 57.878a.951 1.337 0 01-.45-.157c-7.01-5.222-18.795-8.338-31.525-8.338-12.732 0-24.517 3.116-31.524 8.338a.967 1.36 0 01-.906-2.403c7.273-5.42 19.397-8.655 32.43-8.655 13.032 0 25.154 3.237 32.43 8.655a.967 1.36 0 01-.455 2.56zm-1.276 5.841a.952 1.338 0 01-.45-.159 28.494 40.055 0 00-2.112-1.41.967 1.36 0 11.76-2.501c.798.481 1.557.985 2.256 1.506a.967 1.36 0 01-.454 2.564z" />
	<path d="M26.017 60.123a.967 1.36 0 01-.282-2.66 58.655 82.454 0 014.398-1.624.967 1.36 0 11.423 2.653 56.998 80.125 0 00-4.254 1.57.742.742 0 01-.285.061zm48.63-.001a.964 1.355 0 01-.283-.06 58.373 82.059 0 00-4.254-1.57.967 1.359 0 11.423-2.652c1.542.486 3.02 1.03 4.397 1.623a.967 1.36 0 01-.283 2.659zM34.736 57.34a.968 1.361 0 01-.154-2.703 88.822 124.861 0 014.483-.848.966 1.358 0 11.21 2.7 86.238 121.23 0 00-4.384.831.821 1.154 0 01-.155.02zm31.193 0a1.001 1.407 0 01-.155-.019 86.39 121.444 0 00-4.384-.83.967 1.36 0 11.21-2.702 88.145 123.91 0 014.483.85.968 1.361 0 01-.154 2.7zm-8.89-1.38l-.061-.002a105.344 148.088 0 00-4.427-.26.968 1.361 0 01-.948-1.388.971 1.365 0 01.987-1.33c1.509.042 3.025.133 4.508.264a.965 1.357 0 01.904 1.441.965 1.357 0 01-.964 1.275zm-13.413 0a.967 1.36 0 01-.06-2.716c1.484-.13 3.002-.22 4.51-.263a.967 1.36 0 01.04 2.716c-1.48.042-2.971.133-4.428.262h-.062zM19.634 63.72a.967 1.36 0 01-.454-2.563 27.552 27.552 0 012.255-1.507.968 1.36 0 11.762 2.5c-.75.451-1.46.926-2.11 1.411a.974 1.37 0 01-.453.16zM62.584 30.53l-3.208 17.025 3.486 1.298 3.207-17.026 2.063.767-2.797-6.764-4.813 3.932z" />
	<path d="M62.862 49.328a.32.45 0 01-.087-.017l-3.484-1.297a.337.474 0 01-.24-.582l3.12-16.565-1.735-.645a.338.476 0 01-.084-.872l4.814-3.933a.34.477 0 01.462.174l2.78 6.726a.337.474 0 01-.363.739l-1.734-.645-3.123 16.563a.34.477 0 01-.326.354zm-3.072-2.112l2.83 1.054 3.12-16.566a.337.474 0 01.415-.337l1.272.474-2.217-5.362-3.814 3.116 1.273.474a.34.479 0 01.241.583z" />
	<text style="line-height:1.25" x="50.093" y="79.54" font-size="14.412" font-family="sans-serif" word-spacing="0" transform="scale(1.0054 .99463)" stroke-width=".901">
		<tspan x="50.093" y="79.54" style="-inkscape-font-specification:'Bangla MN';text-align:center" font-weight="400" font-family="'Bangla MN'" text-anchor="middle" stroke-width=".811">
			NeverAll
		</tspan>
	</text>
</svg>
